<svg
  t="1696599632693"
  class="icon"
  viewBox="0 0 1024 1024"
  xmlns="http://www.w3.org/2000/svg"
  p-id="2650"
  width="200"
  height="200"
>
  <path
    d="M510.6688 1011.5072c-67.4816 0-132.9152-13.2096-194.56-39.2192-59.4944-25.1904-112.9472-61.1328-158.8224-107.008-45.8752-45.8752-81.92-99.328-107.008-158.8224-26.0096-61.6448-39.2192-126.976-39.2192-194.4576s13.2096-132.8128 39.2192-194.4576c25.1904-59.4944 61.1328-112.9472 107.008-158.8224 45.8752-45.8752 99.328-81.92 158.8224-107.008 61.6448-26.0096 126.976-39.2192 194.4576-39.2192 67.3792 0 132.8128 13.2096 194.4576 39.2192 59.4944 25.1904 112.9472 61.1328 158.8224 107.008 45.8752 45.8752 81.92 99.328 107.008 158.8224 26.0096 61.6448 39.2192 126.976 39.2192 194.4576 0 67.4816-13.2096 132.8128-39.3216 194.4576C945.664 765.952 909.6192 819.4048 863.744 865.28c-45.8752 45.8752-99.2256 81.92-158.72 107.008C643.4816 998.2976 578.048 1011.5072 510.6688 1011.5072 510.6688 1011.5072 510.6688 1011.5072 510.6688 1011.5072M510.5664 55.9104c-61.5424 0-121.344 12.0832-177.5616 35.84-54.272 22.9376-103.1168 55.9104-144.9984 97.792-41.8816 41.8816-74.752 90.624-97.792 144.9984-23.7568 56.2176-35.84 115.9168-35.84 177.5616 0 61.5424 12.0832 121.344 35.84 177.5616 22.9376 54.272 55.9104 103.1168 97.792 144.9984 41.8816 41.8816 90.624 74.752 144.9984 97.792 56.2176 23.7568 115.9168 35.84 177.5616 35.84l0.1024 0c0 0 0 0 0 0 61.5424 0 121.2416-12.0832 177.4592-35.84 54.272-22.9376 103.0144-55.808 144.9984-97.792s74.752-90.7264 97.792-144.9984c23.7568-56.2176 35.84-115.9168 35.84-177.5616 0-61.5424-12.0832-121.344-35.84-177.5616-22.9376-54.272-55.808-103.1168-97.792-144.9984C791.2448 147.5584 742.4 114.688 688.128 91.7504 631.9104 67.9936 572.1088 55.9104 510.5664 55.9104z"
    fill="blue"
    p-id="2651"
  ></path>
  <path
    d="M510.5664 512m-310.0672 0a302.8 302.8 0 1 0 620.1344 0 302.8 302.8 0 1 0-620.1344 0Z"
    fill="blue"
    p-id="2652"
  ></path>
</svg>
